<?xml version="1.0" encoding="UTF-8"?>
<svg id="Ebene_2" data-name="Ebene 2" xmlns="http://www.w3.org/2000/svg" viewBox="0 0 106.55 94.79">
  <defs>
    <style>
      .cls-1 {
        fill: #ff5757;
      }
    </style>
  </defs>
  <g id="Ebene_1-2" data-name="Ebene 1">
    <path class="cls-1" d="M53.3,94.79c-7.4,0-14.63-3.72-18.79-10.49L3.28,33.61C-3.11,23.25.12,9.67,10.49,3.28,20.85-3.11,34.43.12,40.82,10.49l31.23,50.69c6.39,10.37,3.16,23.95-7.21,30.33-3.6,2.22-7.6,3.28-11.54,3.28Z"/>
    <path class="cls-1" d="M65.73,33.61l15.67,25.43c1.42,2.31,4.78,2.31,6.21,0l15.67-25.43c1.9-3.08,2.94-6.44,3.21-9.81.03-.35.05-.71.06-1.06,0-.18,0-.35,0-.53,0-.53-.01-1.06-.05-1.59-.05-.71-.13-1.41-.24-2.1-.44-2.71-1.39-5.34-2.8-7.72l-.19-.3c-.78-1.26-1.66-2.42-2.64-3.47-.01-.02-.03-.03-.04-.05-.1-.11-.21-.22-.32-.33-.07-.07-.13-.14-.2-.2-.1-.1-.2-.2-.3-.29-1.11-1.06-2.35-2.03-3.71-2.87-.2-.12-.41-.24-.61-.36-.06-.03-.12-.07-.18-.1-.17-.1-.34-.19-.52-.28-.04-.02-.07-.04-.11-.06-.19-.1-.38-.19-.57-.28-.03-.02-.06-.03-.09-.05-.03-.01-.05-.02-.08-.04-.11-.05-.23-.11-.34-.16-.1-.04-.2-.09-.3-.14-.02,0-.04-.02-.06-.03-.02,0-.03-.01-.05-.02-2.53-1.08-5.24-1.68-7.98-1.76-.02,0-.03,0-.05,0-.19,0-.39,0-.58,0-.05,0-.1,0-.15,0-.15,0-.31,0-.46,0-.07,0-.13,0-.2,0-.16,0-.33.01-.49.02-.05,0-.09,0-.14,0-.21.01-.42.03-.62.05-.05,0-.1.01-.15.02-.16.02-.32.03-.48.05-.07,0-.13.02-.2.03-.15.02-.31.04-.46.07-.05,0-.11.02-.16.02-.21.03-.41.07-.62.11-.03,0-.06.01-.09.02-.18.03-.35.07-.53.11-.06.01-.12.03-.18.04-.16.04-.31.07-.47.11-.05.01-.1.03-.16.04-.41.1-.81.22-1.21.35-.05.01-.09.03-.14.05-.16.05-.31.1-.47.16-.06.02-.11.04-.17.06-.17.06-.34.13-.52.19-.02,0-.05.02-.07.03-.2.08-.39.16-.59.24-.04.02-.09.04-.13.06-.08.03-.16.07-.24.11-.13.06-.27.12-.4.18-.05.02-.1.05-.16.08-.19.09-.39.19-.58.29,0,0-.02.01-.03.02-.46.24-.91.5-1.35.77-.97.6-1.88,1.26-2.72,1.97,0,0,0,0,0,0-.14.12-.28.24-.41.36,0,0,0,0,0,0-.12.11-.24.22-.37.33-.02.02-.04.04-.07.06-.05.05-.1.1-.15.14-.09.08-.18.17-.26.26-.01.01-.02.02-.03.03-.03.03-.07.07-.1.1-.14.14-.27.28-.4.42-.03.04-.07.07-.1.11-.11.12-.23.25-.34.37-.05.05-.09.1-.14.16-.11.12-.21.25-.32.37-.04.04-.07.09-.11.13-.14.17-.27.34-.41.52-.02.03-.04.06-.07.09-.11.15-.22.3-.33.45-.04.06-.08.11-.12.17-.09.13-.18.26-.27.4-.04.06-.07.11-.11.17-.12.19-.24.37-.36.57l-.19.3c-4.04,6.82-4.26,15.6.19,22.82Z"/>
  </g>
</svg>